#!OML:ASF F:\VICON\USERDATA\INSTALL\Justin_Nancy\Justin_Nancy.ASF
:FULLY-SPECIFIED
:DEGREES
363
root 9.90925 17.3272 19.1554 4.00439 39.0265 6.31418
lowerback 6.4127 -0.916715 -5.32174
upperback 0.170115 -1.55891 1.44817
thorax -3.24094 -0.682476 4.63918
lowerneck -13.9921 -2.54288 -8.9601
upperneck 23.8165 -2.05474 3.3121
head 10.0319 -1.32648 2.42318
rclavicle 1.70955e-014 1.98785e-014
rhumerus -35.3758 -15.8902 -77.226
rradius 27.2198
rwrist 9.95058
rhand -15.4086 12.707
rfingers 7.12502
rthumb 10.7706 -16.9969
lclavicle 1.70955e-014 1.98785e-014
lhumerus -27.9965 4.39129 86.7693
lradius 29.6984
lwrist -7.29363
lhand -14.4071 28.9499
lfingers 7.12502
lthumb 11.7365 58.6011
rfemur -31.5435 -2.85855 15.9923
rtibia 55.4201
rfoot -8.26835 -8.69746
rtoes 0.453124
lfemur -5.48341 -1.50282 -29.6454
ltibia 27.135
lfoot -16.885 3.39974
ltoes 0.513374
364
root 9.99054 17.3332 19.2805 3.72416 39.0008 5.7456
lowerback 6.35102 -1.02175 -5.04565
upperback 0.298536 -1.66447 1.68506
thorax -3.06068 -0.745922 4.73515
lowerneck -14.4679 -2.53798 -9.195
upperneck 23.9374 -1.98316 3.46444
head 10.1664 -1.29764 2.52587
rclavicle -7.46436e-014 3.97569e-015
rhumerus -35.4199 -16.1998 -77.1004
rradius 27.3636
rwrist 10.3373
rhand -15.4816 12.8958
rfingers 7.12502
rthumb 10.7003 -16.8118
lclavicle -7.46436e-014 3.97569e-015
lhumerus -27.7191 4.02187 86.8068
lradius 30.4472
lwrist -6.88432
lhand -14.4761 28.0173
lfingers 7.12502
lthumb 11.67 57.6723
rfemur -31.5629 -2.45445 16.5155
rtibia 52.6438
rfoot -8.80737 -9.48968
rtoes 7.41729
lfemur -4.78544 -1.13017 -29.0516
ltibia 26.6701
lfoot -17.0499 3.01415
ltoes 0.38551
365
root 10.0767 17.3321 19.4037 3.85686 39.1446 5.77418
lowerback 6.37902 -1.1659 -5.03808
upperback 0.334985 -1.85487 1.73469
thorax -3.0145 -0.842773 4.79845
lowerneck -14.9977 -2.56886 -9.43106
upperneck 24.1689 -1.9541 3.62114
head 10.3551 -1.28945 2.62714
rclavicle -3.84151e-014 7.95139e-016
rhumerus -35.4487 -16.0858 -77.1448
rradius 27.3501
rwrist 10.1281
rhand -15.5101 13.1443
rfingers 7.12502
rthumb 10.6727 -16.5646
lclavicle -3.84151e-014 7.95139e-016
lhumerus -27.4953 3.79513 86.6953
lradius 30.917
lwrist -6.72523
lhand -14.9792 26.8034
lfingers 7.12502
lthumb 11.1848 56.4853
rfemur -31.5917 -2.41622 16.4622
rtibia 49.7961
rfoot -8.9468 -9.92466
rtoes 3.09596
lfemur -4.0835 -1.06377 -29.0065
ltibia 26.1564
lfoot -17.3929 2.71656
ltoes 0.699893
366
root 10.1611 17.3335 19.5295 4.31033 39.2309 6.25013
lowerback 6.41215 -1.26911 -5.42327
upperback 0.248095 -2.02743 1.63928
thorax -3.09334 -0.919611 4.93399
lowerneck -14.9884 -2.56136 -9.46937
upperneck 24.2053 -1.96751 3.74386
head 10.3684 -1.28572 2.67657
rclavicle -1.09332e-015 -7.95139e-016
rhumerus -35.8253 -16.0202 -77.1803
rradius 27.4506
rwrist 9.87284
rhand -15.5749 13.1722
rfingers 7.12502
rthumb 10.6102 -16.54
lclavicle -1.09332e-015 -7.95139e-016
lhumerus -27.5598 3.48769 86.4267
lradius 31.4727
lwrist -6.81461
lhand -15.2583 26.0394
lfingers 7.12502
lthumb 10.9156 55.7357
rfemur -31.6311 -2.42844 16.045
rtibia 46.903
rfoot -8.24507 -10.1609
rtoes 2.45171
lfemur -3.36679 -1.14636 -29.345
ltibia 25.6491
lfoot -17.6526 2.57788
ltoes 1.02694
367
root 10.2417 17.3369 19.6419 4.60501 39.1168 6.30853
lowerback 6.34796 -1.3208 -5.50071
upperback 0.22844 -2.09816 1.66602
thorax -3.06529 -0.954169 5.00972
lowerneck -14.9617 -2.57605 -9.52453
upperneck 23.9531 -1.98641 3.77161
head 10.274 -1.29291 2.68908
rclavicle -1.63003e-014 1.27222e-014
rhumerus -35.8918 -16.1148 -77.1367
rradius 27.491
rwrist 9.88619
rhand -15.5109 13.1891
rfingers 7.12502
rthumb 10.672 -16.5199
lclavicle -1.63003e-014 1.27222e-014
lhumerus -27.1812 2.9108 86.6431
lradius 32.2183
lwrist -5.86213
lhand -15.3283 28.9384
lfingers 7.12502
lthumb 10.8481 58.6382
rfemur -31.7655 -2.07666 15.9577
rtibia 43.9177
rfoot -11.3716 -11.0669
rtoes 34.9877
lfemur -2.76881 -1.28761 -29.3747
ltibia 25.0744
lfoot -17.6768 2.80705
ltoes 1.07192
368
root 10.3227 17.3327 19.7536 4.8169 39.0617 6.24535
lowerback 6.32345 -1.40464 -5.42555
upperback 0.214605 -2.20039 1.75562
thorax -3.05224 -1.00578 5.06853
lowerneck -15.0087 -2.5887 -9.58522
upperneck 23.7417 -1.94571 3.61885
head 10.2042 -1.29419 2.64612
rclavicle -1.26228e-014 1.59028e-015
rhumerus -35.8098 -15.9937 -77.0829
rradius 27.4302
rwrist 9.96484
rhand -15.3416 13.243
rfingers 7.12502
rthumb 10.8352 -16.4575
lclavicle -1.26228e-014 1.59028e-015
lhumerus -26.659 3.03985 86.6005
lradius 32.3915
lwrist -5.82588
lhand -15.6911 28.8463
lfingers 7.12502
lthumb 10.4981 58.5642
rfemur -31.7068 -1.70945 15.9289
rtibia 40.7749
rfoot -5.74558 -10.7716
rtoes 0.441835
lfemur -2.2588 -0.984433 -29.2786
ltibia 24.4748
lfoot -17.6277 2.86745
ltoes 0.11374
369
root 10.4056 17.3354 19.8817 4.93351 39.1323 6.33257
lowerback 6.36778 -1.51079 -5.4958
upperback 0.19391 -2.35132 1.71038
thorax -3.07868 -1.07888 5.07508
lowerneck -14.9001 -2.55603 -9.38811
upperneck 23.7224 -1.95296 3.57831
head 10.173 -1.28496 2.59772
rclavicle 1.32192e-014 7.95139e-015
rhumerus -35.9493 -15.9709 -77.1758
rradius 27.3443
rwrist 9.84908
rhand -15.3005 13.2242
rfingers 7.12502
rthumb 10.8749 -16.4742
lclavicle 1.32192e-014 7.95139e-015
lhumerus -26.5092 3.5954 86.0098
lradius 32.3188
lwrist -6.45322
lhand -15.933 24.9151
lfingers 7.12502
lthumb 10.2648 54.6446
rfemur -31.3038 -1.35528 15.703
rtibia 37.4193
rfoot -4.9885 -10.9099
rtoes 3.73329
lfemur -1.44307 -0.801345 -29.2836
ltibia 23.8469
lfoot -17.7375 2.85568
ltoes -0.598043
370
root 10.4836 17.3432 20.0066 5.14822 39.1486 6.41608
lowerback 6.36013 -1.54444 -5.59429
upperback 0.120426 -2.40697 1.64709
thorax -3.14265 -1.1017 5.07053
lowerneck -14.7038 -2.55145 -9.1484
upperneck 23.7072 -2.01885 3.5403
head 10.1301 -1.29891 2.53579
rclavicle 3.69739e-014 9.54166e-015
rhumerus -36.1669 -15.9749 -77.2943
rradius 27.3499
rwrist 9.35678
rhand -15.2621 12.8564
rfingers 7.12502
rthumb 10.9119 -16.8401
lclavicle 3.69739e-014 9.54166e-015
lhumerus -26.6443 2.22716 86.0974
lradius 33.4507
lwrist -4.92658
lhand -15.6101 27.783
lfingers 7.12502
lthumb 10.5762 57.4969
rfemur -31.1456 -0.520333 15.2709
rtibia 33.9695
rfoot -4.18186 -11.3402
rtoes 9.53401
lfemur -0.602576 -0.993996 -29.2814
ltibia 23.1187
lfoot -17.9126 2.86705
ltoes 0.396345
371
root 10.5625 17.3448 20.1247 5.59837 39.075 6.53261
lowerback 6.15473 -1.55921 -5.69709
upperback 0.0544796 -2.42514 1.62865
thorax -3.09038 -1.10985 5.10402
lowerneck -14.7915 -2.54365 -9.01922
upperneck 23.7107 -2.02037 3.48915
head 10.1456 -1.2937 2.49538
rclavicle -8.3589e-014 -1.82882e-014
rhumerus -36.1878 -16.1335 -77.2647
rradius 27.2794
rwrist 9.2498
rhand -15.1381 12.7011
rfingers 7.12502
rthumb 11.0315 -16.989
lclavicle -8.3589e-014 -1.82882e-014
lhumerus -26.5842 1.37842 86.0947
lradius 34.2241
lwrist -4.25436
lhand -15.4628 27.4604
lfingers 7.12502
lthumb 10.7184 57.167
rfemur -31.2738 0.480832 14.6993
rtibia 30.5774
rfoot -3.30745 -11.792
rtoes 14.3704
lfemur -0.0391421 -1.02139 -29.3502
ltibia 22.2468
lfoot -17.7462 2.99552
ltoes 0.129413
372
root 10.6404 17.334 20.2579 6.02294 38.9316 6.88571
lowerback 5.90492 -1.57533 -6.17257
upperback 0.137166 -2.46293 1.63518
thorax -2.83948 -1.13328 5.37039
lowerneck -15.147 -2.54513 -9.0625
upperneck 23.7974 -1.98041 3.49938
head 10.2431 -1.27802 2.51151
rclavicle -2.60408e-014 -5.56597e-015
rhumerus -35.9768 -16.0088 -77.3399
rradius 27.0929
rwrist 9.03024
rhand -15.4908 12.8437
rfingers 7.12502
rthumb 10.6914 -16.8642
lclavicle -2.60408e-014 -5.56597e-015
lhumerus -26.1933 1.61329 85.8887
lradius 34.3989
lwrist -4.6128
lhand -15.5827 25.6609
lfingers 7.12502
lthumb 10.6027 55.3734
rfemur -31.0956 1.40196 14.0471
rtibia 27.3673
rfoot -2.49561 -12.1227
rtoes 16.2509
lfemur 0.734483 -0.594862 -29.5276
ltibia 21.3282
lfoot -17.418 2.83471
ltoes -0.646104
373
root 10.7244 17.3255 20.4002 6.24636 39.0265 7.25957
lowerback 5.72829 -1.66733 -6.68716
upperback 0.28804 -2.60289 1.67962
thorax -2.53952 -1.21227 5.70664
lowerneck -15.4062 -2.63582 -9.36677
upperneck 23.9243 -2.05895 3.71669
head 10.3513 -1.31737 2.63088
rclavicle 8.75646e-014 3.18055e-015
rhumerus -35.8379 -15.8329 -77.3241
rradius 26.9075
rwrist 8.90008
rhand -15.4352 12.9618
rfingers 7.12502
rthumb 10.745 -16.7434
lclavicle 8.75646e-014 3.18055e-015
lhumerus -25.6189 2.30985 85.7197
lradius 34.1603
lwrist -5.26136
lhand -15.7825 25.1737
lfingers 7.12502
lthumb 10.41 54.896
rfemur -30.4269 1.67424 13.6887
rtibia 24.3513
rfoot -1.97242 -12.3367
rtoes 15.1922
lfemur 1.74279 -0.235132 -29.6529
ltibia 20.5488
lfoot -17.1729 2.55636
ltoes -0.718456
374
root 10.8064 17.3152 20.5409 6.48776 39.1602 7.6184
lowerback 5.57172 -1.77566 -7.12251
upperback 0.411182 -2.76 1.69161
thorax -2.27937 -1.30037 5.96545
lowerneck -15.6351 -2.71717 -9.701
upperneck 24.0271 -2.12177 3.94899
head 10.4451 -1.35012 2.76295
rclavicle -3.99557e-014 7.95139e-016
rhumerus -35.8531 -16.1226 -77.1604
rradius 26.9827
rwrist 9.21214
rhand -14.931 12.7168
rfingers 7.12502
rthumb 11.2313 -16.9625
lclavicle -3.99557e-014 7.95139e-016
lhumerus -25.2727 2.52941 85.5985
lradius 34.4138
lwrist -5.36533
lhand -15.8137 25.6841
lfingers 7.12502
lthumb 10.3799 55.4079
rfemur -29.7082 2.01664 13.3131
rtibia 21.5458
rfoot -2.28946 -12.4248
rtoes 13.4978
lfemur 2.61258 0.21177 -29.7728
ltibia 19.8441
lfoot -16.9941 2.22755
ltoes -1.91484
375
root 10.886 17.2941 20.6694 6.8585 39.2296 7.89788
lowerback 5.40705 -1.84793 -7.31738
upperback 0.456425 -2.85613 1.6361
thorax -2.11842 -1.35498 6.01397
lowerneck -15.6333 -2.71777 -9.68918
upperneck 23.7895 -2.116 3.90598
head 10.3572 -1.34791 2.74216
rclavicle 2.26615e-014 1.43125e-014
rhumerus -36.0796 -16.5408 -77.0929
rradius 27.2453
rwrist 9.64688
rhand -14.7031 12.6549
rfingers 7.12502
rthumb 11.451 -17.0124
lclavicle 2.26615e-014 1.43125e-014
lhumerus -25.0616 2.12167 85.4404
lradius 34.8389
lwrist -4.89449
lhand -15.8717 25.8482
lfingers 7.12502
lthumb 10.324 55.5748
rfemur -29.3253 2.59934 12.8027
rtibia 18.964
rfoot -2.99674 -12.1357
rtoes 8.77326
lfemur 3.35452 0.145753 -29.9174
ltibia 19.1059
lfoot -16.763 2.07456
ltoes -2.51488
